# xmcd CD database file
# Copyright (C) 1996 Ti Kan
#
# Track frame offsets:
# 	150
# 	15310
# 	27925
# 	39312
# 	56460
# 	69222
# 	86627
# 	102597
# 	117685
# 	129722
# 	143522
# 	155687
# 	169277
# 	184090
#
# Disc length: 2761 seconds
#
# Revision: 1
# Processed by: cddbd v1.4b41PL1 Copyright (c) Steve Scherf et al.
# Submitted via: DiscPlay 3.4.1
#
DISCID=ba0ac70e
DTITLE=Spencer Bohren - Vintage
DYEAR=1900
DGENRE=
TTITLE0=Born In A Biscayne
TTITLE1=Midnight Delta
TTITLE2=Blues On The Ceiling
TTITLE3=Down In Mississippi
TTITLE4=Cairo Blues
TTITLE5=Hard Times - Killin' Floor
TTITLE6=Drop Down Mama
TTITLE7=Come Back, Corinna
TTITLE8=Darkness
TTITLE9=Stone Pony Blues
TTITLE10=Take It Or Leave It
TTITLE11=Broke Down Engine
TTITLE12=Hey, Hey Daddy Blues
TTITLE13=Catfish Blues
EXTD=
EXTT0=
EXTT1=
EXTT2=
EXTT3=
EXTT4=
EXTT5=
EXTT6=
EXTT7=
EXTT8=
EXTT9=
EXTT10=
EXTT11=
EXTT12=
EXTT13=
PLAYORDER=
